<svg xmlns="http://www.w3.org/2000/svg" xmlns:xlink="http://www.w3.org/1999/xlink" enable-background="new 0 0 1920 1080" viewBox="0 0 1920 1080"><path fill="#2a94f4" d="M326.9,269.1C668.7,190.9,705.3-0.1,926.2,0s245.8,192.7,450.1,124.6s394-16.3,419.4,279
	s-77.9,530.7-630.4,424.2S690.9,996,442.4,960.2C193.9,924.5-14.9,347.3,326.9,269.1z" opacity=".1"/><ellipse cx="954.3" cy="1018.1" fill="#34c3ea" opacity=".1" rx="429.3" ry="55.1"/><rect width="122.6" height="372.4" x="893" y="629.4" fill="#0b4870"/><path fill="#0e538c" d="M434.5,844.9h1039.5c5.3,0,9.6-4.3,9.6-9.6V107.7c0-5.3-4.3-9.6-9.6-9.6H434.5c-5.3,0-9.6,4.3-9.6,9.6v727.7
		C424.9,840.7,429.2,844.9,434.5,844.9z"/><path fill="#163c47" d="M920.1,781.5c0,18.9,15.3,34.2,34.2,34.2c18.9,0,34.2-15.3,34.2-34.2c0-18.9-15.3-34.1-34.2-34.1
		C935.4,747.3,920.1,762.6,920.1,781.5z"/><rect width="551.6" height="60.6" x="678.5" y="957.5" fill="#0e538c"/><rect width="982" height="574.5" x="462.4" y="134.7" fill="#cce9ff" transform="rotate(-180 953.35 421.924)"/><rect width="894.8" height="55" x="505.1" y="177.4" fill="#2a94f4"/><rect width="894.8" height="339.2" x="505.1" y="232.4" fill="#f7f7f7"/><rect width="413.4" height="233.1" x="479.2" y="433.9" fill="#31a1f4"/><rect width="419.4" height="23.1" x="479.2" y="410.8" fill="#d3d3d3"/><rect width="161.6" height="2.8" x="668.8" y="464.3" fill="#fff"/><rect width="367.5" height="2.8" x="497.9" y="453.9" fill="#fff"/><rect width="161.6" height="2.8" x="497.9" y="464.3" fill="#fff"/><rect width="27.2" height="2.8" x="838.2" y="464.3" fill="#fff"/><rect width="161.6" height="2.8" x="532.8" y="487.9" fill="#fff" transform="rotate(-180 613.61 489.27)"/><rect width="367.5" height="2.8" x="497.9" y="498.3" fill="#fff" transform="rotate(-180 681.612 499.706)"/><rect width="161.6" height="2.8" x="703.8" y="487.9" fill="#fff" transform="rotate(-180 784.569 489.27)"/><rect width="27.2" height="2.8" x="497.9" y="487.9" fill="#fff" transform="rotate(-180 511.445 489.27)"/><rect width="367.5" height="2.8" x="497.9" y="474.7" fill="#fff"/><g><rect width="161.6" height="2.8" x="668.8" y="522.4" fill="#fff"/><rect width="367.5" height="2.8" x="497.9" y="512" fill="#fff"/><rect width="161.6" height="2.8" x="497.9" y="522.4" fill="#fff"/><rect width="27.2" height="2.8" x="838.2" y="522.4" fill="#fff"/></g><g><rect width="161.6" height="2.8" x="532.8" y="545.9" fill="#fff" transform="rotate(-180 613.61 547.365)"/><rect width="367.5" height="2.8" x="497.9" y="556.4" fill="#fff" transform="rotate(-180 681.612 557.801)"/><rect width="161.6" height="2.8" x="703.8" y="545.9" fill="#fff" transform="rotate(-180 784.569 547.365)"/><rect width="27.2" height="2.8" x="497.9" y="545.9" fill="#fff" transform="rotate(-180 511.445 547.365)"/></g><rect width="367.5" height="2.8" x="497.9" y="532.8" fill="#fff"/><rect width="15.2" height="233.1" x="883.3" y="433.9" fill="#adcfe0"/><rect width="470.6" height="55" x="929.3" y="330.4" fill="#31a1f4"/><rect width="470.6" height="281.5" x="929.3" y="385.4" fill="#f7f7f7"/><path fill="#e9f8ff" d="M895.7,437.2h-9.6c-1.6,0-2.8,1.3-2.8,2.8v11.1c0,1.6,1.3,2.8,2.8,2.8h9.6c1.6,0,2.8-1.3,2.8-2.8V440
		C898.6,438.5,897.3,437.2,895.7,437.2z"/><g><rect width="63.1" height="163.1" x="1117.5" y="683.4" fill="#ffbe55" transform="rotate(-52.614 1149.007 764.934)"/><rect width="63.1" height="163.1" x="1117.5" y="683.4" opacity=".08" transform="rotate(-52.614 1149.007 764.934)"/><path fill="#ffbe55" d="M1441.5,968.9l-18.9,24.7c-12.2,16-35.1,19.1-51.1,6.8l-205.5-157l63.2-82.6l205.5,157
			C1450.7,930,1453.7,952.9,1441.5,968.9z"/><circle cx="850.2" cy="525.6" r="316.1" fill="#ffbe55"/><g><defs><circle id="a" cx="850.2" cy="527.5" r="261.3"/></defs><clipPath id="b"><use overflow="visible" xlink:href="#a"/></clipPath><g clip-path="url(#b)"><rect width="1064.7" height="681.8" x="252.2" y="209.9" fill="#cce9ff" transform="rotate(-180 784.569 550.783)"/><rect width="970.1" height="442.3" x="298.6" y="204.9" fill="#f7f7f7"/><rect width="734.6" height="414.1" x="282.1" y="402.4" fill="#2a94f4"/><rect width="745.2" height="41" x="282.1" y="361.5" fill="#d3d3d3"/><rect width="287.1" height="5" x="619.1" y="456.5" fill="#fff"/><rect width="653" height="5" x="315.3" y="438" fill="#fff"/><rect width="287.1" height="5" x="315.3" y="456.5" fill="#fff"/><rect width="48.3" height="5" x="920.1" y="456.5" fill="#fff"/><rect width="287.1" height="5" x="377.4" y="498.4" fill="#fff" transform="rotate(-180 521.001 500.89)"/><rect width="653" height="5" x="315.3" y="516.9" fill="#fff" transform="rotate(-180 641.839 519.434)"/><rect width="287.1" height="5" x="681.2" y="498.4" fill="#fff" transform="rotate(-180 824.79 500.89)"/><rect width="48.3" height="5" x="315.3" y="498.4" fill="#fff" transform="rotate(-180 339.456 500.89)"/><rect width="653" height="5" x="315.3" y="475.1" fill="#fff"/><g><rect width="287.1" height="5" x="619.1" y="559.8" fill="#fff"/><rect width="653" height="5" x="315.3" y="541.2" fill="#fff"/><rect width="287.1" height="5" x="315.3" y="559.8" fill="#fff"/><rect width="48.3" height="5" x="920.1" y="559.8" fill="#fff"/></g><g><rect width="287.1" height="5" x="377.4" y="601.6" fill="#fff" transform="rotate(-180 521.001 604.123)"/><rect width="653" height="5" x="315.3" y="620.1" fill="#fff" transform="rotate(-180 641.839 622.668)"/><rect width="287.1" height="5" x="681.2" y="601.6" fill="#fff" transform="rotate(-180 824.79 604.123)"/><rect width="48.3" height="5" x="315.3" y="601.6" fill="#fff" transform="rotate(-180 339.456 604.123)"/></g><rect width="653" height="5" x="315.3" y="578.3" fill="#fff"/><rect width="27.1" height="414.1" x="1000.3" y="402.4" fill="#cce9ff"/><path fill="#f7f7f7" d="M1024.5,408.3h-21.5c-1.6,0-2.8,1.3-2.8,2.8v24c0,1.6,1.3,2.8,2.8,2.8h21.5c1.6,0,2.8-1.3,2.8-2.8v-24
				C1027.3,409.6,1026.1,408.3,1024.5,408.3z"/></g></g></g></svg>